# xmcd
#
# Track frame offsets:
#	150
#	25578
#	35330
#	53510
#	68878
#	79528
#	92420
#	108005
#	118033
#	129193
#	142983
#	153548
#	163495
#	173768
#	184138
#	195015
#	210293
#	228918
#	252433
#	266718
#
# Disc length: 3741 seconds
#
# Revision: 1
# Processed by: cddbd v1.5.2PL0 Copyright (c) Steve Scherf et al.
# Submitted via: audiograbber 1.83.01
#
DISCID=f60e9b14
DTITLE=Quinteto Violado - A Arte de
DYEAR=1900
DGENRE=MPB
TTITLE0=Asa Branca
TTITLE1=Frevila
TTITLE2=Acauã
TTITLE3=Marcha Nativa dos Índios Quiriris
TTITLE4=Procissão
TTITLE5=Vozes da Seca
TTITLE6=Baião da Garoa
TTITLE7=Cadê o Meu Amor
TTITLE8=Roda de Ciranda no. 2
TTITLE9=Cavalo Marinho
TTITLE10=Duda no Frevo
TTITLE11=Palavra Acesa
TTITLE12=Numa Sala de Reboco
TTITLE13=Forró do Dominguinhos_Lamento Sertanejo
TTITLE14=Beira de Estrada
TTITLE15=Sodade meu Bem Sodade_Mulher Rendeira_Meu Pião
TTITLE16=Toada de Gado_A Morte do Vaqueiro
TTITLE17=Vaquejada
TTITLE18=Conto do Canto
TTITLE19=A Volta da Asa Branca
EXTD=
EXTT0=
EXTT1=
EXTT2=
EXTT3=
EXTT4=
EXTT5=
EXTT6=
EXTT7=
EXTT8=
EXTT9=
EXTT10=
EXTT11=
EXTT12=
EXTT13=
EXTT14=
EXTT15=
EXTT16=
EXTT17=
EXTT18=
EXTT19=
PLAYORDER=
